<?xml version="1.0" encoding="utf-8"?>
<!-- Generator: Adobe Illustrator 21.1.0, SVG Export Plug-In . SVG Version: 6.00 Build 0)  -->
<svg version="1.1" id="Layer_1" xmlns="http://www.w3.org/2000/svg" xmlns:xlink="http://www.w3.org/1999/xlink" x="0px" y="0px"
	 viewBox="0 0 1024 768" style="enable-background:new 0 0 1024 768;" xml:space="preserve">
<style type="text/css">
	.st0{font-family:'xkcd';}
	.st1{font-size:195.4656px;}
</style>
<text transform="matrix(0.742 0 0 1 470.1099 273.8896)" class="st0 st1">click me</text>
<path d="M143,417"/>
<path d="M427,220.5c-51.9-7.9-103.5,21.2-136.5,75.7c-16.7,27.5-29.3,58.8-44.4,87.7c-16.2,30.8-35.9,55.4-61.2,72
	c-28.2,18.5-59.4,27.2-89.9,35.5c-7.6,2.1-4.4,17.8,3.2,15.7c33.2-9.1,66.8-18.9,97.1-40.1c29.4-20.5,50.3-52.2,68.3-89
	c18.8-38.3,35.6-79.9,63.9-107.1c28.9-27.7,64.4-39.5,99.5-34.2C434.7,238,434.6,221.7,427,220.5z"/>
<path d="M123.2,533.2c-16.4-9.5-33.2-16-50.7-19.6c8.7-16.7,19.4-30.9,32.1-42.3c6.5-5.8,0.4-19.9-6.1-14.1
	c-17.1,15.2-31.1,34.9-41.5,58.6c-2.5,5.7,0.8,11.7,5.2,12.3c19,2.6,37.4,8.9,54.9,19.1C124.2,551.4,130.4,537.3,123.2,533.2z"/>
</svg>
