<?xml version="1.0" encoding="utf-8"?>
<!-- Generator: Adobe Illustrator 21.1.0, SVG Export Plug-In . SVG Version: 6.00 Build 0)  -->
<svg version="1.1" id="Layer_1" xmlns="http://www.w3.org/2000/svg" xmlns:xlink="http://www.w3.org/1999/xlink" x="0px" y="0px"
	 viewBox="0 0 785 406" style="enable-background:new 0 0 785 406;" xml:space="preserve">
<style type="text/css">
	.st0{fill:#050000;}
</style>
<g>
	<g>
		<g id="XMLID_1_">
			<g>
				<path class="st0" d="M741.8,218.2L742,402H392H42l0.2-183.8l0.3-183.7l150.8-0.3L344,34V19.7c0-7.9,0.3-14.7,0.7-15
					c0.3-0.4,21.8-0.6,47.7-0.5l47.1,0.3l0.3,14.7l0.3,14.8l150.7,0.2l150.7,0.3L741.8,218.2z M737,398V229V60l-2.7-0.6
					c-7.8-1.8-16.2-10-17.8-17.5l-0.7-2.9h-35.9H644v72.5V184h-79.8h-79.9l-4.7,5.8c-11.6,14.5-32.8,28.7-51.9,34.7
					c-32.9,10.4-71.7,5.4-98.5-12.9c-3-2-5.9-3.3-6.5-2.9c-0.5,0.3-0.7,0.2-0.4-0.4c0.3-0.5-2.1-3.2-5.3-5.9
					c-3.3-2.7-8.6-7.9-11.7-11.7l-5.7-6.7h-79.8H140v-72.5V39h-36c-28,0-36.2,0.3-36.5,1.2c-0.2,0.7-0.9,3-1.5,5.1
					c-1.6,5.1-8.2,11.3-14.2,13.3L47,60.2v168.9V398h114.5H276v-3.8c0-6.2,2.8-21.6,5.6-30.4c10.5-33.3,39.8-62.8,73.7-74.1
					c23.7-8,55-7.2,78.7,1.8c30.7,11.7,58.2,40.2,67.9,70.4c2.8,8.5,4.8,18.9,5.7,28.3l0.7,7.8h114.3H737z M737,47v-8h-8
					c-7,0-8,0.2-8,1.8c0,4.4,10.3,14.2,15,14.2C736.6,55,737,51.9,737,47z M640,180v-70.5V39h-66h-66l-0.2,33.7l-0.3,33.8H392H276.5
					l-0.3-33.8L276,39h-65.5H145v70.5V180h247.5H640z M503.3,398l-0.6-8.8c-1.9-25.5-13.2-49.2-32.4-68
					c-23.5-22.8-47.3-32.4-79.6-32.1c-6.2,0.1-13.9,0.5-17.2,1c-37.7,5.4-74.3,36.6-87.1,74.3c-3,8.8-5.4,21.3-5.4,28.2v5.4h51.6
					h51.7l2.3-2.5c3.1-3.3,7.7-3.3,10.8,0l2.3,2.5h51.8H503.3z M503,102V70.5V39H392H281v31.5V102h111H503z M473.8,189.1l4.3-5.1
					H392h-86.2l3.7,4.2c12.9,15.2,33.1,27.7,54.1,33.5c9.2,2.6,11.2,2.8,28.4,2.7c16.9,0,19.4-0.2,28.5-2.7
					C439.9,216.5,462.3,202.8,473.8,189.1z M435,34V21V8h-43h-43v13v13h43H435z M58.1,49.4c2-2.2,4.9-7.9,4.9-9.4c0-0.6-3.1-1-8-1
					h-8v8c0,4.9,0.4,8,1,8C49.8,55,56.4,51.3,58.1,49.4z"/>
				<path class="st0" d="M395.5,135.4c3.2,1.4,3.5,1.9,3.5,5.5c0,5-2.7,8.1-7,8.1c-4,0-7-3.1-7-7.3c0-1.7,0.4-3.7,0.8-4.4
					c0.6-0.9,4-2.8,6-3.2C391.9,134,393.6,134.7,395.5,135.4z"/>
			</g>
			<g>
			</g>
		</g>
	</g>
</g>
</svg>
