<?xml version="1.0" encoding="utf-8"?>
<!-- Generator: Adobe Illustrator 21.1.0, SVG Export Plug-In . SVG Version: 6.00 Build 0)  -->
<svg version="1.1" id="Layer_1" xmlns="http://www.w3.org/2000/svg" xmlns:xlink="http://www.w3.org/1999/xlink" x="0px" y="0px"
	 viewBox="0 0 1024 768" style="enable-background:new 0 0 1024 768;" xml:space="preserve">
<style type="text/css">
	.st0{font-family:'xkcd';}
	.st1{font-size:188.0821px;}
	.st2{stroke:#000000;stroke-width:6;stroke-miterlimit:10;}
</style>
<text transform="matrix(1.0155 0 0 1 30.4077 547.6504)" class="st0 st1">Hover over</text>
<path d="M307.3,226.2"/>
<path d="M320.9,101.4c-1.9,0-1.9,3,0,3C322.9,104.4,322.9,101.4,320.9,101.4z"/>
<path class="st2" d="M953.6,186.3c-23.5,35.4-57.6,63.6-96.9,79.8c-37.3,15.4-85.6,15.8-111.3,51.3c-13.1,18.1-17.4,41.9-11.8,63.4
	c1.5,5.6,10.1,3.2,8.7-2.4c-5-19.3-0.9-40.3,10.9-56.5c12.4-17,32.5-25.1,52-30.8c19.7-5.8,39.6-10.1,58.6-18.3
	c18.6-8,36-18.7,51.7-31.4c17.8-14.4,33.3-31.5,45.9-50.5C964.6,186,956.8,181.5,953.6,186.3z"/>
<path class="st2" d="M980.9,179.2c1.6-6.5,6.9-21.1,0.3-26.2c-7.2-5.5-15.1,6.5-20.2,10.1c-8.2,5.6-17.7,9-27.6,9.7
	c-5.7,0.4-5.8,9.4,0,9c8.6-0.6,16.8-2.7,24.5-6.5c3.8-1.8,7.3-4.1,10.6-6.7c0.9-0.7,4.5-4.3,6.8-6.3c-0.1,3.5-1.6,8-2.1,10.3
	c-1.1,4.6-2.3,9.2-2.9,14c-1.2,9.2-0.3,18.4,2.5,27.2c1.7,5.5,10.4,3.2,8.7-2.4C978.1,200.5,978.3,190.1,980.9,179.2z"/>
</svg>
