<?xml version="1.0" encoding="utf-8"?>
<!-- Generator: Adobe Illustrator 21.1.0, SVG Export Plug-In . SVG Version: 6.00 Build 0)  -->
<svg version="1.1" id="Layer_1" xmlns="http://www.w3.org/2000/svg" xmlns:xlink="http://www.w3.org/1999/xlink" x="0px" y="0px"
	 viewBox="0 0 1024 768" style="enable-background:new 0 0 1024 768;" xml:space="preserve">
<style type="text/css">
	.st0{font-family:'xkcd';}
	.st1{font-size:184.492px;}
	.st2{stroke:#000000;stroke-width:4;stroke-miterlimit:10;}
</style>
<text transform="matrix(0.7962 0 0 1 354.7559 183.2686)" class="st0 st1">Hover over</text>
<path d="M6.4,410"/>
<path class="st2" d="M331.3,118.4C246,129.3,165,177.9,104.1,253.8c-17.3,21.6-32.8,45.4-46.5,70.8c-4.4,8.1,6,15.7,10.4,7.6
	c46.1-86.1,116.2-150.6,194.9-181.1c22.3-8.7,45.2-14.6,68.4-17.6C338.8,132.5,339,117.4,331.3,118.4z"/>
<path class="st2" d="M97.3,340.7c-18.5-1.1-36.9,3.2-53.7,12.3c5.1-20.5,10.2-41.2,14.9-61.9c2.1-9.4-9.4-13.4-11.6-4
	c-6,26.4-12.4,52.6-19.2,78.7c-1.6,6.4,4.5,11.7,8.9,8.5c18.6-13.6,39.3-19.8,60.7-18.5C105.1,356.3,105,341.2,97.3,340.7z"/>
</svg>
