<?xml version="1.0" encoding="utf-8"?>
<!-- Generator: Adobe Illustrator 21.1.0, SVG Export Plug-In . SVG Version: 6.00 Build 0)  -->
<svg version="1.1" id="Layer_1" xmlns="http://www.w3.org/2000/svg" xmlns:xlink="http://www.w3.org/1999/xlink" x="0px" y="0px"
	 viewBox="0 0 1031 1500" style="enable-background:new 0 0 1031 1500;" xml:space="preserve">
<style type="text/css">
	.st0{fill:#FFFFFF;stroke:#231F20;stroke-width:7;stroke-miterlimit:10;}
</style>
<g>
	<path class="st0" d="M305.8,246.9c12.9,22.8,14.8,27.6,16.4,42.4c1.7,15,3.4,19.9,9.2,25.5c5.2,5,17.7,12.5,28.3,16.9
		c10.8,4.5,15.4,6.7,20.6,9.9l4.1,2.6l4.3-5.6c3-4,6.1-6.6,10.8-9.2c21.9-12.1,34.1-24.6,39.4-40.2c2.4-7,2.5-20.9,0.2-33.1
		c-2.5-13.8-4.3-27.1-4.7-33.5c-0.3-5.6,0-6.4,4.4-13.5c5.4-8.6,9-16.5,10.6-23.1c1.9-7.8,2.5-18.1,1.3-22.6
		c-1.2-4.4-6.4-9.8-10.4-10.8c-2.2-0.6-2.2-0.9-2.2-15.8c-0.1-17.3-1.7-25.2-8.2-38.3c-3.1-6.2-4.1-7.4-6.2-7.5
		c-1.4,0-2-0.3-1.3-0.6c0.6-0.2,1.2-1,1.2-1.7c0-2.3-11.5-12.3-17.6-15.4c-9.2-4.6-23.9-8.9-34.6-10.1c-10.8-1.2-12-1.2-22.8,0
		c-8,0.9-20.6,4.4-22.9,6.2c-0.7,0.6-2.9,1.7-4.7,2.3c-6.6,2.3-14.8,8-23.6,16.4c-6.6,6.4-8.7,9-8.2,10.3c0.4,1.1,0,1.9-1.2,2.4
		c-2.3,0.8-4.3,3.3-4.4,5.1c0,0.8-0.9,2.6-2,4.1c-3,4.3-7,19.4-7,26.6c0,7.5,11.9,67.3,15.5,78.1C293,223.4,296.2,229.8,305.8,246.9
		z"/>
	<path class="st0" d="M267.2,711.1c-1.3,48.9-1.7,53.9-5.1,75c-2.2,14.1-2,16.3,3.4,31l2,5.5l7.3,0.5c9.1,0.6,38.8-0.5,52.8-2
		c46.1-5,96.4-16,137.4-30c62.2-21.3,120.7-56.3,140.4-83.9l4.7-6.6l-0.1-9.5c-0.1-9-2.5-23.4-6-36c-0.8-3-2.2-8-3-11
		c-1.9-6.8-8.6-20.2-14.8-29.5c-2.6-3.9-6.6-10.8-8.9-15.4c-5-10.1-5.5-15.5-2.6-28.8c4-18.3,4.1-19.8,0.4-29.4
		c-1.8-4.7-4.5-11-6-13.9c-4.7-9.3-6.4-15.7-8.6-32.4c-2.9-22.3-1.8-40.2,3.4-54.1c1.2-3.4,1.8-4,4.2-3.8
		c5.8,0.4,12.1,4.7,23.5,16.1c15.2,15.2,18,16.6,34.5,16.7c13,0,21.5-1.9,32-7.2c15.1-7.7,32.8-25.2,40.3-39.9l2.1-4.1l-4.8-7.9
		c-2.6-4.4-12-20.1-20.8-34.9c-23.5-39.4-38.9-60-56.9-76.2c-19.4-17.5-32.7-23.6-79.4-36.8c-12.4-3.5-24-6.6-25.9-7
		c-1.9-0.4-11.5-3.4-21.4-6.6c-23.2-7.6-34.3-9.5-45-7.8c-2.7,0.4-5.1,1-5.4,1.3c-0.3,0.2,0,2.6,0.7,5.3c4.3,17.6,4.9,27.1,2.5,38
		c-3.9,17.2-12.3,27.9-29.6,37.5c-4.7,2.6-11.3,6.7-14.7,9.2c-6,4.5-12.2,11.6-12.2,14.2c0,2.5-2,2.5-5.2,0.1
		c-4.5-3.4-14.4-8.3-25.3-12.4c-27.6-10.6-35.5-20.1-39.9-48.3c-2.4-15-7.5-29-10.6-29c-0.5,0-4,2-7.7,4.4
		c-8.8,5.6-27.3,14.5-39.9,19.1c-46.3,16.8-58.9,23.2-72.8,37.1c-11.4,11.3-20,26.3-25.1,43.9c-4.5,15.6-11.3,56.9-18,109
		c-1.6,12.6-1.9,26-0.8,31.6c1.1,5.6,8.4,11.8,21.3,18.1c20.2,9.8,40.6,16.6,51.6,17c7.3,0.3,10.3-1.6,13.9-8.8
		c2.2-4.3,2.7-7.1,3.4-19.5c0.7-10.1,1.5-15.7,2.8-18.6c1-2.4,2.1-4.3,2.4-4.3c1.2,0,1.9,9.5,1.9,26.9c0.1,28.2,1.3,40.3,5,50.7
		c16.9,47.1,18.5,53.3,20.4,79.4C267.3,673.3,267.8,690.2,267.2,711.1z"/>
	<path class="st0" d="M696.2,433.8c-9.1,18.1-21.5,27.5-48.1,36.9c-8.2,2.8-12.1,4.7-12.3,5.8c-0.9,4.2,15.9,27.4,30.1,41.8
		c10.6,10.6,22.3,20.3,51.8,42.6c26.2,19.9,34.7,27.4,42.1,37.5c2.9,3.9,13.1,16.6,22.7,28.2c21.3,25.6,27.5,33.9,32.4,43.1
		c3.4,6.5,3.7,7.9,3.7,15c0,12.5,1.9,33.4,3.5,39.9c2.9,11.1,5.5,15.4,21.6,35.4c3.6,4.5,8.3,11.1,10.4,14.6
		c2.1,3.6,4.4,6.5,5.1,6.5s2.5-1.7,3.9-3.7c3.2-4.8,3.3-11.9,0.4-25.3c-2.9-13.3-3.3-17-2.1-17c1.4,0,9.8,11.5,12.7,17.5
		c4,8.1,5.4,16,6.4,34.3c0.5,9.6,1.1,17.5,1.3,17.7c1.9,1.6,4.9,1.3,7.6-1l3.1-2.6l1.1,3.8c0.6,2.1,1.3,7.5,1.7,12l0.6,8.3h3.1
		c6.1,0,7.2-0.9,12.9-10.8l5.6-9.7l-2.4-16.5c-3.9-26.8-7.5-55.9-7.5-60.5c0-3.7-2-7.3-18.3-33.1c-21.1-33.2-58.4-94.4-74.2-121.4
		c-5.9-10.2-13.2-22.8-16.3-28c-17.3-29.7-42.8-63.3-67.2-88.4c-12.1-12.5-29.4-27.6-31.7-27.6C699.2,429.1,697.5,431.2,696.2,433.8
		z"/>
	<path class="st0" d="M210.4,549.9l-2-7.8l-10.2-3c-23.3-7-38.2-13.8-44-19.9c-3.7-3.8-4.9-3.9-7.4-0.4c-3.3,4.7-8.9,16.6-10.6,22.4
		c-6.7,23-6.7,53.1,0,102.4c1.9,14.3,4.4,32.7,5.5,41c2.5,18.8,2.7,39.2,0.5,49.7c-0.9,4.3-4.3,16-7.6,26.1
		c-8.3,25.5-10.3,34.4-10.3,45.2c0.1,12.7,2.9,20.4,20,54.5l14.4,28.5l6.2,1.3c3.4,0.7,6.7,1,7.4,0.7c0.9-0.3,1.3-2.5,1.3-6.4
		c0-7.7,1.3-8.6,12-7.8c4.2,0.3,8.4,0.1,9.3-0.5c2.1-1.1,2.1-4.9,0.2-18.3c-1.7-11.8-1.9-29-0.5-36.6c2-10.3,1.5-41.9-0.9-58.4
		c-1.2-8.3-2.5-21.1-2.8-28.5c-0.9-21.1,1.1-32.1,12.2-68c11.3-36.6,14.1-52.4,13.2-76.3C215.8,574.6,214.3,564.4,210.4,549.9z"/>
	<path class="st0" d="M264.1,876.6c0.1,0.5,0.3,1.2,0.5,1.5c0.4,0.7,0.9,3.7,1.5,9c3.4,28.2,16,76.3,34.5,132
		c13,38.8,25.5,67.4,37.6,85.6c6.3,9.6,8.2,11.4,9.4,9.3c1.1-1.8,2.2-0.5,8.6,10.6c18.1,31,41,57.4,52.5,60.5
		c15.6,4.2,52.9-20.6,68.3-45.3c7.3-11.7,7.7-14.5,5.5-39.7c-1.1-11.8-2.6-23.8-3.4-26.7c-1.4-4.6-2.1-5.5-7.8-9.1
		c-3.4-2.2-10.2-7.6-15.2-12.1c-13.5-12.3-16.1-13.6-26.5-13.4c-19.6,0.4-47.3,13.8-65.5,31.8c-8.9,8.8-13.4,15.6-17,25.8
		c-1.8,5.1-3.1,7.5-3.8,6.8c-0.5-0.5-0.6-1.8-0.2-2.8c0.5-1,1-2.7,1.1-3.8c0.4-3.2,0.9-4.8,2.4-7.5c0.7-1.4,1.1-2.5,0.9-2.6
		c-1.4-0.2,9.1-14.1,15.5-20.4c18.3-18.2,48.4-33.9,65.2-34c2.2,0,6.5,0.8,9.5,1.7s5.7,1.6,6.2,1.5c0.4-0.1,0.7,0.3,0.7,0.9
		c0,0.5,0.5,0.7,1,0.4c0.6-0.3,1-0.1,1,0.4c0,0.6,0.7,1.1,1.5,1.1c0.8,0,1.5,0.4,1.5,1c0,0.5,0.3,0.9,0.8,0.8
		c1.3-0.5,5.2,2.8,4.4,3.7c-0.4,0.5-0.2,0.5,0.5,0.1c0.7-0.4,2.5,1.1,4.5,3.5c6,7.6,15.2,17.1,18,18.5l2.7,1.4l0.7-4.5
		c0.3-2.5,0.3-9.7-0.1-15.9c-0.4-7.5-0.3-12,0.4-13.2c4.6-8.1,6.1-30,4.1-57.2c-1.1-14.1-1.1-19.5-0.1-28.1
		c1.6-14,4.2-27.1,5.2-27.1c0.5,0,0.8,0.3,0.7,0.7c-0.6,2.1,4.6,8.8,14.1,18.5c5.8,5.8,12.4,12.8,14.6,15.4c2.2,2.6,5.3,6.1,7,7.8
		c1.6,1.7,3.4,3.9,4,4.8c0.5,0.9,5.2,7,10.2,13.5c18.1,23.1,37.8,53,48.4,73.3c2.4,4.7,4.5,8.7,4.6,8.9c0.1,0.2,1.3-0.4,2.7-1.2
		c2.1-1.4,12.7-17.2,14.3-21.3c0.3-0.7-1.8-3.6-4.8-6.6c-3-2.9-5.3-5.6-5.1-6.1c0.1-0.4-0.2-0.7-0.8-0.7c-1.2,0-4.1-5.5-3.3-6.4
		c0.4-0.3,0.1-0.6-0.5-0.6c-0.6,0-0.9-0.6-0.6-1.4s0.2-1.6-0.3-1.9c-1.2-0.7-0.7-14.5,0.7-19.8c1.5-5.7,7.9-18.9,9.1-18.9
		c0.5,0,0.9-0.6,0.9-1.3c0-1.6,7.2-8.7,8.8-8.7c0.7,0,1.2-0.4,1.2-0.8c0-1.2,12.4-7.5,19-9.7c6.3-2.1,8.2-2.6,12.7-2.8
		c1.7-0.1,3.5-0.6,3.9-1c1.1-1,14.6-0.9,19.6,0.3c2.4,0.5,7.5,1.4,11.3,2c3.9,0.6,12.3,2.9,18.8,5c7.5,2.4,11.7,3.4,11.7,2.6
		c0-0.6-2-6.8-4.4-13.6c-2.4-6.9-10.1-29.4-17.1-50c-26.7-78.6-41.6-116.6-56.4-144c-2.8-5.1-5.1-9.7-5.1-10.2
		c0-0.4-0.4-0.8-0.8-0.8c-0.4,0-0.9-1.2-1-2.8c-1-11.9-12.7-37.2-17.3-37.2c-0.4,0-1.8,1.3-3.1,2.9c-1.2,1.6-4.1,5.3-6.3,8.2
		c-5.8,7.6-14.8,16.3-27,26.2c-12.4,10-39.7,26.6-57.4,34.9c-45.6,21.4-114.3,41.1-168.8,48.3c-24.8,3.3-32.6,4-61.8,4.9l-17,0.5
		l-3.7,4.3c-5.8,6.6-7.3,10.3-7.3,18.3c0.1,5.9,1.4,12.1,4.2,19.5C263.6,874.9,264,876,264.1,876.6z"/>
	<path class="st0" d="M708.4,969c-4.1-3-14.5-7.4-21.8-9.4c-8.7-2.3-30.2-2.9-39-1c-21.7,4.6-37.4,15.4-45.1,31
		c-3.2,6.6-3.4,7.5-3.4,17.5c0,11.6,0.7,13.8,7.5,22c5.2,6.4,12.1,17,23.5,36c13.6,22.9,24.7,39,30.1,44l4.6,4.3l8.7-0.6
		c16.2-1,35.2-9.8,52.9-24.6c10.3-8.6,23.2-25.8,23.2-31c0-2.5-4-11.6-18.7-43.1c-6.6-14-13.7-29.5-15.8-34.3
		C712.6,974.1,710.2,970.3,708.4,969z"/>
	<path class="st0" d="M855.6,1404.7c4-3.8,6.4-4.6,9.9-3.6c6,1.7,18.6,2.2,26.1,1.1c8.1-1.3,15.9-4.9,19.5-9.2l2.2-2.7l-9.6-19.4
		c-5.3-10.6-11.6-23.8-14-29.3c-2.4-5.5-5.5-12.3-6.7-15.2c-1.3-2.8-2.4-5.4-2.4-5.7c0-0.4-0.9-2.5-1.9-4.9c-1-2.3-3.5-8.5-5.6-13.7
		c-2-5.2-4.1-10.3-4.6-11.2c-0.5-1-0.9-2.3-0.9-3c-0.1-0.7-0.9-3.1-2-5.3c-1.8-3.8-16.5-48.3-19.5-59c-4.3-15.6-14.3-45.2-18.6-55.4
		c-8.3-19.6-19-36.8-42.4-68c-13.8-18.3-16.2-21.7-22.2-31.4c-2.6-4.2-5-7.7-5.3-7.7c-0.3,0.1-2.7,3-5.5,6.7
		c-13.7,18-23.5,27.2-38.6,36.4c-9.2,5.5-23.9,10.5-35.1,12c-4.6,0.6-9.1,1.5-10,2.1c-4.3,2.2-0.8,8.1,12.2,20.5
		c14.6,13.9,17.6,18.5,31.8,49.6c8.7,19,31.5,52.9,57.7,85.7c8.4,10.6,12.6,16.2,16.5,22c0.8,1.3,2.4,3.5,3.6,4.9
		c4,5.1,19.2,26.7,21.2,30.1c9.9,16.9,12.4,22,17.8,36.8c4,11,5.1,15.3,5.9,24.2c0.3,3.6,1.1,8.6,1.6,11.2c1,4.4,1.4,4.9,5,5.8
		C846.1,1410.3,851.3,1408.7,855.6,1404.7z"/>
	<path class="st0" d="M588.7,1301c10.4,11.3,14.2,13.6,21.6,12.8c7.1-0.7,12.1-4,17.8-11.9c6.8-9.1,9-17.3,8.9-32.8
		c0-14-1.8-20.4-7.3-27.1c-3.6-4.4-13-9.5-20.2-11c-7.7-1.6-20.4-8-27.5-13.9c-8.3-6.8-15.9-16.3-29.2-36.1
		c-15.8-23.8-25.1-34.6-39.5-45.9c-1.1-0.8-2.9-2.4-4.1-3.5c-6.8-6.4-19.2-15.5-21.1-15.5c-0.5,0-1.1,2.6-1.1,5.8
		c-0.7,24.7-34,58.2-65.3,65.8c-6.3,1.5-8.3,1.6-12.9,0.6c-3.1-0.6-5.8-1-6-0.7c-1.1,1,1.2,6.1,3.9,8.6c1.6,1.5,3.6,4.4,4.5,6.4
		c4.5,10.8,33.8,32.9,64.9,49.1c13,6.7,20.8,9.5,32.5,11.4c18.7,3,29.2,5.2,34.2,6.9C559.2,1275.6,575.4,1286.6,588.7,1301z"/>
	<path class="st0" d="M666,1337.1c-1.5-8.3-2.1-15.5-2.8-34.4c-1-29.3-3.8-40.4-12.8-51.9c-4.6-5.7-14.3-11.9-16.1-10.1
		c-0.3,0.4,0.5,2.8,1.8,5.4c2.8,5.5,4.6,11.9,4.9,17c0.1,1.9,0.5,4.3,1,5.3c0.5,0.9,0.5,3.2,0.2,5c-0.4,1.7-1.1,5.9-1.5,9.2
		c-2.9,19.8-16.2,36.5-29.8,37.3c-1.7,0.1-3.4-0.2-3.8-0.7c-0.3-0.6-1.2-0.8-2-0.4c-0.8,0.3-1.5,0-1.5-0.7c0-0.6-0.4-0.9-0.8-0.6
		c-0.4,0.2-3.4-1.7-6.5-4.4c-5.7-4.9-10.1-6.7-13.6-5.5c-4.4,1.4-3.2,6.9,1.9,8c1.6,0.4,3.2,1,3.4,1.3c0.2,0.4,0.9,9.7,1.6,20.7
		c2.8,48.8,6.7,67.2,18.8,90.9c6.8,13.2,16,23.6,25,28.4c5.5,3,6.7,3.2,15.6,3.2c7.9,0,10.5-0.4,13.9-2.1
		c6.2-3.2,16.1-13.9,19.9-21.7c3.2-6.4,3.3-7.1,3.3-18.7c-0.1-14.2-1.9-22.3-12-53.5C667.4,1343.6,666.9,1341.7,666,1337.1z"/>
	<path class="st0" d="M374.6,1278.1c-11.9-1.2-16.6-1.1-25.8,0.5c-4,0.8-9.8,2.1-13,3c-34.3,10-61.6,38.6-70.8,74.3
		c-2.4,9-2.5,11-2.1,27.2c0.3,15.6,0.7,18.4,3.1,25.7c6.3,19.3,13.8,31.3,28.2,45.4c13.8,13.3,26.7,20.5,46.3,25.6
		c8,2.1,12,2.6,23.6,2.6c20.5,0.1,37-4.4,54.7-14.9c11.2-6.6,26.6-22,33.2-33.2c10.2-17.1,14.9-34.5,14.9-54.7
		c0-20.2-4.9-37.1-15.4-54C435,1299,406.6,1281.5,374.6,1278.1z"/>
	<path class="st0" d="M984.6,1456.6c-1.6-4.9-5.9-9-16.5-15.5c-4.9-3-9.3-5.7-9.8-5.9c-3.4-1.3-9.8-7.9-26.1-26.4
		c-7.7-8.7-13.6-14.7-14.7-14.7c-1,0-3,1.5-4.4,3.4c-2.8,3.7-13.1,9.6-15.3,8.8c-0.8-0.2-2.4,0.1-3.6,0.7c-1.6,0.9-4.3,0.9-10.6,0.2
		c-4.7-0.6-11.8-1.1-16-1.1c-7.2,0-7.7,0.2-11.1,3.4c-1.9,1.9-5.9,4.4-8.8,5.6c-9.9,4.3-10.4,8.5-2.8,21.5c2.8,4.9,5.2,9.2,5.2,9.5
		c0.1,0.3,1.6,4.9,3.4,10.3c3.8,11.4,5.8,13.2,18.1,17.1c12.5,4,20.9,4.9,40.5,4.3c20.7-0.7,17.5-0.5,33.5-2.3
		C978,1471.7,988,1466.9,984.6,1456.6z"/>
</g>
</svg>
