<?xml version="1.0" encoding="utf-8"?>
<!-- Generator: Adobe Illustrator 21.1.0, SVG Export Plug-In . SVG Version: 6.00 Build 0)  -->
<svg version="1.1" id="Layer_1" xmlns="http://www.w3.org/2000/svg" xmlns:xlink="http://www.w3.org/1999/xlink" x="0px" y="0px"
	 viewBox="0 0 1031 1500" style="enable-background:new 0 0 1031 1500;" xml:space="preserve">
<style type="text/css">
	.st0{fill:#FFFFFF;stroke:#231F20;stroke-width:9;stroke-miterlimit:10;}
	.st1{fill:none;stroke:#231F20;stroke-width:9;stroke-miterlimit:10;}
	.st2{fill:#231F20;}
	.st3{fill:none;stroke:#231F20;stroke-width:4;stroke-miterlimit:10;}
</style>
<g>
	<path class="st0" d="M371.4,204.3c12.1,21.4,13.9,25.9,15.4,39.8c1.6,14.1,3.2,18.7,8.6,23.9c4.9,4.7,16.6,11.7,26.5,15.8
		c10.1,4.2,14.4,6.3,19.3,9.3l3.8,2.4l4-5.3c2.8-3.8,5.7-6.2,10.1-8.6c20.5-11.3,32-23.1,37-37.7c2.3-6.6,2.3-19.6,0.2-31
		c-2.3-12.9-4-25.4-4.4-31.4c-0.3-5.3,0-6,4.1-12.7c5.1-8.1,8.4-15.5,9.9-21.7c1.8-7.3,2.3-17,1.2-21.2c-1.1-4.1-6-9.2-9.8-10.1
		c-2.1-0.6-2.1-0.8-2.1-14.8c-0.1-16.2-1.6-23.6-7.7-35.9c-2.9-5.8-3.8-6.9-5.8-7c-1.3,0-1.9-0.3-1.2-0.6c0.6-0.2,1.1-0.9,1.1-1.6
		c0-2.2-10.8-11.5-16.5-14.4c-8.6-4.3-22.4-8.3-32.4-9.5c-10.1-1.1-11.3-1.1-21.4,0c-7.5,0.8-19.3,4.1-21.5,5.8
		c-0.7,0.6-2.7,1.6-4.4,2.2c-6.2,2.2-13.9,7.5-22.1,15.4c-6.2,6-8.2,8.4-7.7,9.7c0.4,1,0,1.8-1.1,2.3c-2.2,0.8-4,3.1-4.1,4.8
		c0,0.8-0.8,2.4-1.9,3.8c-2.8,4-6.6,18.2-6.6,24.9c0,7,11.2,63.1,14.5,73.2C359.4,182.2,362.4,188.2,371.4,204.3z"/>
	<path class="st0" d="M335.2,639.6c-1.2,45.9-1.6,50.5-4.8,70.3c-2.1,13.2-1.9,15.3,3.2,29.1l1.9,5.2l6.8,0.5
		c8.5,0.6,36.4-0.5,49.5-1.9c43.2-4.7,90.4-15,128.9-28.1c58.3-20,113.2-52.8,131.7-78.7l4.4-6.2l-0.1-8.9
		c-0.1-8.4-2.3-21.9-5.6-33.8c-0.8-2.8-2.1-7.5-2.8-10.3c-1.8-6.4-8.1-18.9-13.9-27.7c-2.4-3.7-6.2-10.1-8.3-14.4
		c-4.7-9.5-5.2-14.5-2.4-27c3.8-17.2,3.8-18.6,0.4-27.6c-1.7-4.4-4.2-10.3-5.6-13c-4.4-8.7-6-14.7-8.1-30.4
		c-2.7-20.9-1.7-37.7,3.2-50.7c1.1-3.2,1.7-3.8,3.9-3.6c5.4,0.4,11.3,4.4,22,15.1c14.3,14.3,16.9,15.6,32.4,15.7
		c12.2,0,20.2-1.8,30-6.8c14.2-7.2,30.8-23.6,37.8-37.4l2-3.8l-4.5-7.4c-2.4-4.1-11.3-18.9-19.5-32.7c-22-37-36.5-56.3-53.4-71.5
		c-18.2-16.4-30.7-22.1-74.5-34.5c-11.6-3.3-22.5-6.2-24.3-6.6s-10.8-3.2-20.1-6.2c-21.8-7.1-32.2-8.9-42.2-7.3
		c-2.5,0.4-4.8,0.9-5.1,1.2c-0.3,0.2,0,2.4,0.7,5c4,16.5,4.6,25.4,2.3,35.6c-3.7,16.1-11.5,26.2-27.8,35.2
		c-4.4,2.4-10.6,6.3-13.8,8.6c-5.6,4.2-11.4,10.9-11.4,13.3c0,2.3-1.9,2.3-4.9,0.1c-4.2-3.2-13.5-7.8-23.7-11.6
		c-25.9-9.9-33.3-18.9-37.4-45.3c-2.3-14.1-7-27.2-9.9-27.2c-0.5,0-3.8,1.9-7.2,4.1c-8.3,5.3-25.6,13.6-37.4,17.9
		c-43.4,15.8-55.2,21.8-68.3,34.8c-10.7,10.6-18.8,24.7-23.5,41.2c-4.2,14.6-10.6,53.4-16.9,102.2c-1.5,11.8-1.8,24.4-0.8,29.6
		c1,5.3,7.9,11.1,20,17c18.9,9.2,38.1,15.6,48.4,15.9c6.8,0.3,9.7-1.5,13-8.3c2.1-4,2.5-6.7,3.2-18.3c0.7-9.5,1.4-14.7,2.6-17.4
		c0.9-2.3,2-4,2.3-4c1.1,0,1.8,8.9,1.8,25.2c0.1,26.4,1.2,37.8,4.7,47.5c15.8,44.2,17.3,50,19.1,74.5
		C335.3,604.2,335.7,620,335.2,639.6z"/>
	<path class="st0" d="M737.5,379.6c-8.5,17-20.2,25.8-45.1,34.6c-7.7,2.6-11.3,4.4-11.5,5.4c-0.8,3.9,14.9,25.7,28.2,39.2
		c9.9,9.9,20.9,19,48.6,40c24.6,18.7,32.5,25.7,39.5,35.2c2.7,3.7,12.3,15.6,21.3,26.4c20,24,25.8,31.8,30.4,40.4
		c3.2,6.1,3.5,7.4,3.5,14.1c0,11.7,1.8,31.3,3.3,37.4c2.7,10.4,5.2,14.4,20.3,33.2c3.4,4.2,7.8,10.4,9.8,13.7c2,3.4,4.1,6.1,4.8,6.1
		s2.3-1.6,3.7-3.5c3-4.5,3.1-11.2,0.4-23.7c-2.7-12.5-3.1-15.9-2-15.9c1.3,0,9.2,10.8,11.9,16.4c3.8,7.6,5.1,15,6,32.2
		c0.5,9,1,16.4,1.2,16.6c1.8,1.5,4.6,1.2,7.1-0.9l2.9-2.4l1,3.6c0.6,2,1.2,7,1.6,11.3l0.6,7.8h2.9c5.7,0,6.8-0.8,12.1-10.1l5.3-9.1
		l-2.3-15.5c-3.7-25.1-7-52.4-7-56.7c0-3.5-1.9-6.8-17.2-31c-19.8-31.1-54.8-88.5-69.6-113.9c-5.5-9.6-12.4-21.4-15.3-26.3
		c-16.2-27.9-40.1-59.4-63-82.9c-11.3-11.7-27.6-25.9-29.7-25.9C740.3,375.1,738.7,377.1,737.5,379.6z"/>
	<path class="st0" d="M281.9,488.4l-1.9-7.3l-9.6-2.8c-21.9-6.6-35.8-12.9-41.3-18.7c-3.5-3.6-4.6-3.7-6.9-0.4
		c-3.1,4.4-8.3,15.6-9.9,21c-6.3,21.6-6.3,49.8,0,96c1.8,13.4,4.1,30.7,5.2,38.5c2.3,17.6,2.5,36.8,0.5,46.6c-0.8,4-4,15-7.1,24.5
		c-7.8,23.9-9.7,32.3-9.7,42.4c0.1,11.9,2.7,19.1,18.8,51.1l13.5,26.7l5.8,1.2c3.2,0.7,6.3,0.9,6.9,0.7c0.8-0.3,1.2-2.3,1.2-6
		c0-7.2,1.2-8.1,11.3-7.3c3.9,0.3,7.9,0.1,8.7-0.5c2-1,2-4.6,0.2-17.2c-1.6-11.1-1.8-27.2-0.5-34.3c1.9-9.7,1.4-39.3-0.8-54.8
		c-1.1-7.8-2.3-19.8-2.6-26.7c-0.8-19.8,1-30.1,11.4-63.8c10.6-34.3,13.2-49.1,12.4-71.6C287,511.6,285.6,502,281.9,488.4z"/>
	<path class="st0" d="M332.3,794.8c0.1,0.5,0.3,1.1,0.5,1.4c0.4,0.7,0.8,3.5,1.4,8.4c3.2,26.4,15,71.6,32.4,123.8
		c12.2,36.4,23.9,63.2,35.3,80.3c5.9,9,7.7,10.7,8.8,8.7c1-1.7,2.1-0.5,8.1,9.9c17,29.1,38.5,53.8,49.2,56.7
		c14.6,3.9,49.6-19.3,64.1-42.5c6.8-11,7.2-13.6,5.2-37.2c-1-11.1-2.4-22.3-3.2-25c-1.3-4.3-2-5.2-7.3-8.5
		c-3.2-2.1-9.6-7.1-14.3-11.3c-12.7-11.5-15.1-12.8-24.9-12.6c-18.4,0.4-44.4,12.9-61.4,29.8c-8.3,8.3-12.6,14.6-15.9,24.2
		c-1.7,4.8-2.9,7-3.6,6.4c-0.5-0.5-0.6-1.7-0.2-2.6c0.5-0.9,0.9-2.5,1-3.6c0.4-3,0.8-4.5,2.3-7c0.7-1.3,1-2.3,0.8-2.4
		c-1.3-0.2,8.5-13.2,14.5-19.1c17.2-17.1,45.4-31.8,61.1-31.9c2.1,0,6.1,0.8,8.9,1.6c2.8,0.8,5.3,1.5,5.8,1.4
		c0.4-0.1,0.7,0.3,0.7,0.8c0,0.5,0.5,0.7,0.9,0.4c0.6-0.3,0.9-0.1,0.9,0.4c0,0.6,0.7,1,1.4,1s1.4,0.4,1.4,0.9c0,0.5,0.3,0.8,0.8,0.8
		c1.2-0.5,4.9,2.6,4.1,3.5c-0.4,0.5-0.2,0.5,0.5,0.1c0.7-0.4,2.3,1,4.2,3.3c5.6,7.1,14.3,16,16.9,17.3l2.5,1.3l0.7-4.2
		c0.3-2.3,0.3-9.1-0.1-14.9c-0.4-7-0.3-11.3,0.4-12.4c4.3-7.6,5.7-28.1,3.8-53.6c-1-13.2-1-18.3-0.1-26.4
		c1.5-13.1,3.9-25.4,4.9-25.4c0.5,0,0.8,0.3,0.7,0.7c-0.6,2,4.3,8.3,13.2,17.3c5.4,5.4,11.6,12,13.7,14.4c2.1,2.4,5,5.7,6.6,7.3
		c1.5,1.6,3.2,3.7,3.8,4.5c0.5,0.8,4.9,6.6,9.6,12.7c17,21.7,35.4,49.7,45.4,68.7c2.3,4.4,4.2,8.2,4.3,8.3c0.1,0.2,1.2-0.4,2.5-1.1
		c2-1.3,11.9-16.1,13.4-20c0.3-0.7-1.7-3.4-4.5-6.2c-2.8-2.7-5-5.3-4.8-5.7c0.1-0.4-0.2-0.7-0.8-0.7c-1.1,0-3.8-5.2-3.1-6
		c0.4-0.3,0.1-0.6-0.5-0.6c-0.6,0-0.8-0.6-0.6-1.3c0.3-0.8,0.2-1.5-0.3-1.8c-1.1-0.7-0.7-13.6,0.7-18.6c1.4-5.3,7.4-17.7,8.5-17.7
		c0.5,0,0.8-0.6,0.8-1.2c0-1.5,6.8-8.2,8.3-8.2c0.7,0,1.1-0.4,1.1-0.8c0-1.1,11.6-7,17.8-9.1c5.9-2,7.7-2.4,11.9-2.6
		c1.6-0.1,3.3-0.6,3.7-0.9c1-0.9,13.7-0.8,18.4,0.3c2.3,0.5,7,1.3,10.6,1.9c3.7,0.6,11.5,2.7,17.6,4.7c7,2.3,11,3.2,11,2.4
		c0-0.6-1.9-6.4-4.1-12.8c-2.3-6.5-9.5-27.6-16-46.9c-25-73.7-39-109.3-52.9-135c-2.6-4.8-4.8-9.1-4.8-9.6c0-0.4-0.4-0.8-0.8-0.8
		c-0.4,0-0.8-1.1-0.9-2.6c-0.9-11.2-11.9-34.9-16.2-34.9c-0.4,0-1.7,1.2-2.9,2.7c-1.1,1.5-3.8,5-5.9,7.7
		c-5.4,7.1-13.9,15.3-25.3,24.6c-11.6,9.4-37.2,24.9-53.8,32.7c-42.8,20.1-107.2,38.5-158.3,45.3c-23.3,3.1-30.6,3.8-58,4.6
		l-15.9,0.5l-3.5,4c-5.4,6.2-6.8,9.7-6.8,17.2c0.1,5.5,1.3,11.3,3.9,18.3C331.8,793.2,332.2,794.3,332.3,794.8z"/>
	<path class="st0" d="M748.9,881.5c-3.8-2.8-13.6-6.9-20.4-8.8c-8.2-2.2-28.3-2.7-36.6-0.9c-20.4,4.3-35.1,14.4-42.3,29.1
		c-3,6.2-3.2,7-3.2,16.4c0,10.9,0.7,12.9,7,20.6c4.9,6,11.3,15.9,22,33.8c12.8,21.5,23.2,36.6,28.2,41.3l4.3,4l8.2-0.6
		c15.2-0.9,33-9.2,49.6-23.1c9.7-8.1,21.8-24.2,21.8-29.1c0-2.3-3.8-10.9-17.5-40.4c-6.2-13.1-12.8-27.7-14.8-32.2
		C752.9,886.3,750.6,882.7,748.9,881.5z"/>
	<path class="st0" d="M887,1290.1c3.8-3.6,6-4.3,9.3-3.4c5.6,1.6,17.4,2.1,24.5,1c7.6-1.2,14.9-4.6,18.3-8.6l2.1-2.5l-9-18.2
		c-5-9.9-10.9-22.3-13.1-27.5c-2.3-5.2-5.2-11.5-6.3-14.3c-1.2-2.6-2.3-5.1-2.3-5.3c0-0.4-0.8-2.3-1.8-4.6c-0.9-2.2-3.3-8-5.3-12.8
		c-1.9-4.9-3.8-9.7-4.3-10.5c-0.5-0.9-0.8-2.2-0.8-2.8c-0.1-0.7-0.8-2.9-1.9-5c-1.7-3.6-15.5-45.3-18.3-55.3
		c-4-14.6-13.4-42.4-17.4-52c-7.8-18.4-17.8-34.5-39.8-63.8c-12.9-17.2-15.2-20.4-20.8-29.4c-2.4-3.9-4.7-7.2-5-7.2
		c-0.3,0.1-2.5,2.8-5.2,6.3c-12.8,16.9-22,25.5-36.2,34.1c-8.6,5.2-22.4,9.8-32.9,11.3c-4.3,0.6-8.5,1.4-9.4,2
		c-4,2.1-0.8,7.6,11.4,19.2c13.7,13,16.5,17.3,29.8,46.5c8.2,17.8,29.5,49.6,54.1,80.4c7.9,9.9,11.8,15.2,15.5,20.6
		c0.8,1.2,2.3,3.3,3.4,4.6c3.8,4.8,18,25,19.9,28.2c9.3,15.8,11.6,20.6,16.7,34.5c3.8,10.3,4.8,14.3,5.5,22.7
		c0.3,3.4,1,8.1,1.5,10.5c0.9,4.1,1.3,4.6,4.7,5.4C878.1,1295.3,882.9,1293.8,887,1290.1z"/>
	<path class="st0" d="M636.7,1192.8c9.8,10.6,13.3,12.8,20.3,12c6.7-0.7,11.3-3.8,16.7-11.2c6.4-8.5,8.4-16.2,8.3-30.8
		c0-13.1-1.7-19.1-6.8-25.4c-3.4-4.1-12.2-8.9-18.9-10.3c-7.2-1.5-19.1-7.5-25.8-13c-7.8-6.4-14.9-15.3-27.4-33.9
		c-14.8-22.3-23.5-32.4-37-43c-1-0.8-2.7-2.3-3.8-3.3c-6.4-6-18-14.5-19.8-14.5c-0.5,0-1,2.4-1,5.4c-0.7,23.2-31.9,54.6-61.2,61.7
		c-5.9,1.4-7.8,1.5-12.1,0.6c-2.9-0.6-5.4-0.9-5.6-0.7c-1,0.9,1.1,5.7,3.7,8.1c1.5,1.4,3.4,4.1,4.2,6c4.2,10.1,31.7,30.9,60.9,46
		c12.2,6.3,19.5,8.9,30.5,10.7c17.5,2.8,27.4,4.9,32.1,6.5C609,1169,624.2,1179.3,636.7,1192.8z"/>
	<path class="st0" d="M709.2,1226.7c-1.4-7.8-2-14.5-2.6-32.3c-0.9-27.5-3.6-37.9-12-48.7c-4.3-5.3-13.4-11.2-15.1-9.5
		c-0.3,0.4,0.5,2.6,1.7,5.1c2.6,5.2,4.3,11.2,4.6,15.9c0.1,1.8,0.5,4,0.9,5c0.5,0.8,0.5,3,0.2,4.7c-0.4,1.6-1,5.5-1.4,8.6
		c-2.7,18.6-15.2,34.2-27.9,35c-1.6,0.1-3.2-0.2-3.6-0.7c-0.3-0.6-1.1-0.8-1.9-0.4c-0.8,0.3-1.4,0-1.4-0.7c0-0.6-0.4-0.8-0.8-0.6
		c-0.4,0.2-3.2-1.6-6.1-4.1c-5.3-4.6-9.5-6.3-12.8-5.2c-4.1,1.3-3,6.5,1.8,7.5c1.5,0.4,3,0.9,3.2,1.2c0.2,0.4,0.8,9.1,1.5,19.4
		c2.6,45.8,6.3,63,17.6,85.2c6.4,12.4,15,22.1,23.4,26.6c5.2,2.8,6.3,3,14.6,3c7.4,0,9.8-0.4,13-2c5.8-3,15.1-13,18.7-20.4
		c3-6,3.1-6.7,3.1-17.5c-0.1-13.3-1.8-20.9-11.3-50.2C710.5,1232.8,710,1231,709.2,1226.7z"/>
	<path class="st0" d="M435.9,1171.4c-11.2-1.1-15.6-1-24.2,0.5c-3.8,0.8-9.2,2-12.2,2.8c-32.2,9.4-57.8,36.2-66.4,69.7
		c-2.3,8.4-2.3,10.3-2,25.5c0.3,14.6,0.7,17.3,2.9,24.1c5.9,18.1,12.9,29.4,26.4,42.6c12.9,12.5,25,19.2,43.4,24
		c7.5,2,11.3,2.4,22.1,2.4c19.2,0.1,34.7-4.1,51.3-14c10.5-6.2,24.9-20.6,31.1-31.1c9.6-16,14-32.4,14-51.3s-4.6-34.8-14.4-50.6
		C492.5,1191,465.9,1174.5,435.9,1171.4z"/>
	<path class="st0" d="M1008,1338.8c-1.5-4.6-5.5-8.4-15.5-14.5c-4.6-2.8-8.7-5.3-9.2-5.5c-3.2-1.2-9.2-7.4-24.5-24.8
		c-7.2-8.2-12.8-13.8-13.8-13.8c-0.9,0-2.8,1.4-4.1,3.2c-2.6,3.5-12.3,9-14.3,8.3c-0.8-0.2-2.3,0.1-3.4,0.7c-1.5,0.8-4,0.8-9.9,0.2
		c-4.4-0.6-11.1-1-15-1c-6.8,0-7.2,0.2-10.4,3.2c-1.8,1.8-5.5,4.1-8.3,5.3c-9.3,4-9.8,8-2.6,20.2c2.6,4.6,4.9,8.6,4.9,8.9
		c0.1,0.3,1.5,4.6,3.2,9.7c3.6,10.7,5.4,12.4,17,16c11.7,3.8,19.6,4.6,38,4c19.4-0.7,16.4-0.5,31.4-2.2
		C1001.8,1352.9,1011.1,1348.4,1008,1338.8z"/>
</g>
<g>
	<g>
		<line class="st1" x1="35.5" y1="68" x2="35.6" y2="1326.6"/>
		<g>
			<path class="st2" d="M35.5,31.6C29.1,48.8,18.3,70,6.8,83.2l28.7-10.4l28.7,10.4C52.6,70,41.8,48.8,35.5,31.6z"/>
		</g>
		<g>
			<path class="st2" d="M35.6,1363c-6.4-17.1-17.2-38.4-28.7-51.5l28.7,10.4l28.7-10.4C52.7,1324.6,41.9,1345.8,35.6,1363z"/>
		</g>
	</g>
</g>
<line class="st3" x1="1660.2" y1="918.9" x2="1660.2" y2="922.1"/>
</svg>
